<svg xmlns="http://www.w3.org/2000/svg" xmlns:xlink="http://www.w3.org/1999/xlink" viewBox="0 0 1185.92 449.33"><defs><style>.\37 c33ef4b-e79a-44e5-a9f3-daddb376688e{fill:#231f20;}.\33 8bd2103-3886-43e7-8993-825008f69449{fill:url(#c19488b0-665e-4e8f-96f7-a77fe5c7b0a7);}.cc524122-0274-4580-9e2f-e6050970be32{opacity:0.42;fill:url(#6b1beb17-0297-477e-8bf4-76d790aac4d7);}.\36 888eda0-e342-482b-a4a5-ed6379c28a13{fill:url(#642cec38-8eb0-4b70-82f9-55d75ecb7b5b);}.ccdc5b36-4e02-41c9-b75a-e6ce2246dc3f{fill:#19bef0;}.e44e05d4-2265-495a-a19e-f89dadf554a6{fill:url(#f6b2734d-1155-46bb-ac53-3ae1435038db);}.\33 e656897-8026-4101-9564-faad2c1a5d6b{opacity:0.44;fill:url(#0b279120-aa2b-4ef6-b028-c17014935fde);}.b840a504-6461-4ecd-bba2-d5da055150c5{fill:url(#360c7822-7246-4ae6-bd56-a74d9bbabf0d);}.a26343a2-a225-4198-a740-ab0fbd220b18,.b0ddbcdc-c39a-4cb6-9372-31e7f1ad8753{opacity:0.4;}.b0ddbcdc-c39a-4cb6-9372-31e7f1ad8753{fill:url(#f28c4677-ea3c-4e23-8cbe-d2387ab58d54);}.a26343a2-a225-4198-a740-ab0fbd220b18{fill:url(#883def13-05b4-4cd9-99f1-b44117e8c5f1);}</style><linearGradient id="c19488b0-665e-4e8f-96f7-a77fe5c7b0a7" y1="8897.32" x2="449.33" y2="8897.32" gradientTransform="matrix(1, 0, 0, -1, 0, 9049.33)" gradientUnits="userSpaceOnUse"><stop offset="0" stop-color="#19bef0"/><stop offset="1" stop-color="#0a72ba"/></linearGradient><linearGradient id="6b1beb17-0297-477e-8bf4-76d790aac4d7" x1="440.24" y1="145.91" x2="334.33" y2="218.34" gradientUnits="userSpaceOnUse"><stop offset="0" stop-color="#004697"/><stop offset="1" stop-color="#004697" stop-opacity="0"/></linearGradient><linearGradient id="642cec38-8eb0-4b70-82f9-55d75ecb7b5b" x1="456.35" y1="142.66" x2="363.23" y2="241.27" xlink:href="#6b1beb17-0297-477e-8bf4-76d790aac4d7"/><linearGradient id="f6b2734d-1155-46bb-ac53-3ae1435038db" x1="449.33" y1="8752" x2="-2.39" y2="8752" gradientTransform="matrix(1, 0, 0, -1, 0, 9049.33)" gradientUnits="userSpaceOnUse"><stop offset="0" stop-color="#19bef0"/><stop offset="0.53" stop-color="#19bef0"/><stop offset="1" stop-color="#0a72ba"/></linearGradient><linearGradient id="0b279120-aa2b-4ef6-b028-c17014935fde" x1="14.42" y1="264.34" x2="133.47" y2="264.34" xlink:href="#6b1beb17-0297-477e-8bf4-76d790aac4d7"/><linearGradient id="360c7822-7246-4ae6-bd56-a74d9bbabf0d" x1="-0.34" y1="286.23" x2="107.4" y2="227.8" gradientUnits="userSpaceOnUse"><stop offset="0" stop-color="#004697"/><stop offset="0.67" stop-color="#004697" stop-opacity="0"/></linearGradient><linearGradient id="f28c4677-ea3c-4e23-8cbe-d2387ab58d54" x1="8.52" y1="8926.78" x2="249.68" y2="8926.78" gradientTransform="matrix(1, 0, 0, -1, 0, 9049.33)" gradientUnits="userSpaceOnUse"><stop offset="0" stop-color="#fff"/><stop offset="0.07" stop-color="#fff" stop-opacity="0.88"/><stop offset="0.21" stop-color="#fff" stop-opacity="0.65"/><stop offset="0.36" stop-color="#fff" stop-opacity="0.45"/><stop offset="0.5" stop-color="#fff" stop-opacity="0.29"/><stop offset="0.64" stop-color="#fff" stop-opacity="0.16"/><stop offset="0.77" stop-color="#fff" stop-opacity="0.07"/><stop offset="0.89" stop-color="#fff" stop-opacity="0.02"/><stop offset="1" stop-color="#fff" stop-opacity="0"/></linearGradient><linearGradient id="883def13-05b4-4cd9-99f1-b44117e8c5f1" x1="-3720.7" y1="504.29" x2="-3480.8" y2="504.29" gradientTransform="matrix(-1, 0.03, 0.03, 1, -3292.29, -64.26)" xlink:href="#f28c4677-ea3c-4e23-8cbe-d2387ab58d54"/></defs><title>Logo</title><g id="122a2311-dc11-4c03-9729-943cdc99d841" data-name="Layer 2"><g id="4e2d568d-d054-4be6-9ee3-9a5cbab9d345" data-name="Layer 1"><path class="7c33ef4b-e79a-44e5-a9f3-daddb376688e" d="M575.74,148.33c0-25.55,19.54-44.59,46.09-44.59,26.31,0,46,18.91,46,44.59s-19.66,44.59-46,44.59C595.28,192.92,575.74,173.88,575.74,148.33Zm82.8,0c0-20.92-15.66-36.32-36.71-36.32s-37,15.4-37,36.32,15.79,36.33,37,36.33S658.54,169.25,658.54,148.33Z"/><path class="7c33ef4b-e79a-44e5-a9f3-daddb376688e" d="M747.35,154v38.2h-8.89V154.84c0-13.9-7.27-21-19.79-21-14.16,0-23,8.77-23,23.8v34.57h-8.89V126.29h8.52v12.15c4.76-8,13.65-12.66,25-12.66C736.33,125.78,747.35,135.06,747.35,154Z"/><path class="7c33ef4b-e79a-44e5-a9f3-daddb376688e" d="M829.15,162H774c1,13.78,11.52,22.93,25.93,22.93,8,0,15.15-2.88,20.16-8.65l5,5.77c-5.89,7-15,10.77-25.43,10.77-20.54,0-34.57-14-34.57-33.57s13.65-33.45,32.19-33.45,31.94,13.66,31.94,33.45C829.28,160,829.15,161,829.15,162ZM774,155.35h46.72c-1.13-12.9-10.52-21.92-23.42-21.92S775.17,142.45,774,155.35Z"/><path class="7c33ef4b-e79a-44e5-a9f3-daddb376688e" d="M950.79,134.55c0,18.67-13.53,29.94-35.83,29.94H891.41v27.68h-9.27V104.49H915C937.26,104.49,950.79,115.77,950.79,134.55Zm-9.27,0c0-14-9.27-22-26.81-22h-23.3v43.84h23.3C932.25,156.35,941.52,148.33,941.52,134.55Z"/><path class="7c33ef4b-e79a-44e5-a9f3-daddb376688e" d="M1018.06,151.33v40.84h-8.52V181.9c-4,6.76-11.77,10.9-22.67,10.9-14.91,0-24-7.77-24-19.16,0-10.15,6.51-18.67,25.43-18.67h20.91v-4c0-11.27-6.38-17.41-18.66-17.41-8.52,0-16.53,3-21.92,7.77l-4-6.64c6.64-5.64,16.41-8.9,26.81-8.9C1008.41,125.78,1018.06,134.3,1018.06,151.33Zm-8.9,21V161.61H988.5c-12.78,0-16.91,5-16.91,11.77,0,7.64,6.14,12.4,16.66,12.4C998.27,185.78,1005.66,181,1009.16,172.38Z"/><path class="7c33ef4b-e79a-44e5-a9f3-daddb376688e" d="M1103.49,126.29v57.86c0,22.67-11.15,32.95-32.94,32.95-12,0-23.8-3.63-30.69-10.15l4.51-6.76c6.26,5.63,15.78,9,25.93,9,16.66,0,24.3-7.63,24.3-23.92v-8.39c-5.52,8.39-14.91,12.78-25.68,12.78-18.79,0-33.07-13.16-33.07-32.07s14.28-31.82,33.07-31.82c11,0,20.54,4.52,26,13.16V126.29Zm-8.64,31.31c0-14.28-10.53-24-25.06-24s-24.92,9.77-24.92,24,10.4,24.17,24.92,24.17S1094.85,171.88,1094.85,157.6Z"/><path class="7c33ef4b-e79a-44e5-a9f3-daddb376688e" d="M1185.79,162h-55.11c1,13.78,11.52,22.93,25.92,22.93,8,0,15.16-2.88,20.17-8.65l5,5.77c-5.89,7-15,10.77-25.42,10.77-20.55,0-34.57-14-34.57-33.57s13.65-33.45,32.19-33.45,31.94,13.66,31.94,33.45C1185.92,160,1185.79,161,1185.79,162Zm-55.11-6.63h46.72c-1.13-12.9-10.52-21.92-23.42-21.92S1131.8,142.45,1130.68,155.35Z"/><path class="7c33ef4b-e79a-44e5-a9f3-daddb376688e" d="M575.12,319.73l3.63-7.14c6.26,6.14,17.41,10.64,28.93,10.64,16.41,0,23.55-6.88,23.55-15.53,0-24.05-54-9.27-54-41.71,0-12.9,10-24.05,32.32-24.05,9.89,0,20.17,2.88,27.18,7.77l-3.13,7.39a45.18,45.18,0,0,0-24.05-7.26c-16,0-23.17,7.13-23.17,15.9,0,24.05,54,9.52,54,41.46,0,12.9-10.27,23.93-32.69,23.93C594.53,331.13,581.63,326.49,575.12,319.73Z"/><path class="7c33ef4b-e79a-44e5-a9f3-daddb376688e" d="M725.43,297.43c0,20-14,33.57-32.82,33.57-10.52,0-19.54-4.51-25.05-13v36.7h-8.89V264.49h8.52v13c5.38-8.78,14.53-13.53,25.42-13.53C711.4,264,725.43,277.52,725.43,297.43Zm-8.89,0c0-15.28-10.65-25.67-24.55-25.67s-24.55,10.39-24.55,25.67S678,323.11,692,323.11,716.54,312.84,716.54,297.43Z"/><path class="7c33ef4b-e79a-44e5-a9f3-daddb376688e" d="M737,297.43c0-19.54,14.28-33.44,33.57-33.44S804,277.89,804,297.43,789.82,331,770.53,331,737,317,737,297.43Zm58,0c0-15.41-10.39-25.67-24.42-25.67S746,282,746,297.43s10.52,25.68,24.55,25.68S795,312.84,795,297.43Z"/><path class="7c33ef4b-e79a-44e5-a9f3-daddb376688e" d="M856.84,326.36c-3.51,3.14-8.77,4.64-13.9,4.64-12.4,0-19.29-7-19.29-19.16V272H811.87v-7.51h11.78v-14.4h8.89v14.4h20V272h-20v39.33c0,7.77,4,12,11.4,12a14.75,14.75,0,0,0,9.77-3.38Z"/><path class="7c33ef4b-e79a-44e5-a9f3-daddb376688e" d="M873,237.43h8.89v92.94H873Z"/><path class="7c33ef4b-e79a-44e5-a9f3-daddb376688e" d="M904.7,243.7a6.42,6.42,0,0,1,6.51-6.27,6.32,6.32,0,0,1,6.51,6.14,6.51,6.51,0,0,1-13,.13Zm2,20.79h8.89v65.88H906.7Z"/><path class="7c33ef4b-e79a-44e5-a9f3-daddb376688e" d="M1001.4,264.49v57.87c0,22.67-11.15,32.94-32.94,32.94-12,0-23.8-3.63-30.69-10.15l4.51-6.76c6.26,5.64,15.78,9,25.93,9,16.65,0,24.3-7.64,24.3-23.93v-8.39c-5.52,8.39-14.91,12.78-25.68,12.78-18.79,0-33.07-13.16-33.07-32.07S948,264,966.83,264c11,0,20.54,4.51,26,13.15V264.49Zm-8.65,31.31c0-14.28-10.52-24-25-24s-24.92,9.76-24.92,24S953.18,320,967.7,320,992.75,310.08,992.75,295.8Z"/><path class="7c33ef4b-e79a-44e5-a9f3-daddb376688e" d="M1087,292.17v38.2h-8.9V293.05c0-13.91-7.26-21.05-19.79-21.05-14.15,0-23,8.77-23,23.8v34.57h-8.89V237.43h8.89V276c4.89-7.64,13.53-12,24.68-12C1075.93,264,1087,273.26,1087,292.17Z"/><path class="7c33ef4b-e79a-44e5-a9f3-daddb376688e" d="M1145.83,326.36c-3.5,3.14-8.76,4.64-13.9,4.64-12.4,0-19.29-7-19.29-19.16V272h-11.77v-7.51h11.77v-14.4h8.9v14.4h20V272h-20v39.33c0,7.77,4,12,11.39,12a14.72,14.72,0,0,0,9.77-3.38Z"/><path class="38bd2103-3886-43e7-8993-825008f69449" d="M65.8,224.49c87.74-87.73,230-87.73,317.73,0A224.1,224.1,0,0,1,434.91,304,224.73,224.73,0,0,0,383.53,65.8c-87.74-87.73-230-87.73-317.73,0A224.71,224.71,0,0,0,14.42,304,224,224,0,0,1,65.8,224.49Z"/><path class="38bd2103-3886-43e7-8993-825008f69449" d="M65.8,224.49c87.74-87.73,230-87.73,317.73,0A224.1,224.1,0,0,1,434.91,304,224.73,224.73,0,0,0,383.53,65.8c-87.74-87.73-230-87.73-317.73,0A224.71,224.71,0,0,0,14.42,304,224,224,0,0,1,65.8,224.49Z"/><path class="cc524122-0274-4580-9e2f-e6050970be32" d="M327.21,183.41s61.71,27.45,107.7-38.09c0,0-8.35,33.17-51.38,79.17C383.53,224.49,364.26,203.46,327.21,183.41Z"/><path class="6888eda0-e342-482b-a4a5-ed6379c28a13" d="M434.91,145.32s-22.54,48.43-66.36,65.48c0,0,21.24,17.9,23.68,24.6C392.23,235.4,432.47,172.1,434.91,145.32Z"/><path class="ccdc5b36-4e02-41c9-b75a-e6ce2246dc3f" d="M244.4,448.43c1.33-.11,2.65-.23,4-.37C247.05,448.2,245.73,448.32,244.4,448.43Z"/><path class="ccdc5b36-4e02-41c9-b75a-e6ce2246dc3f" d="M252.28,447.6c1.32-.16,2.65-.33,4-.51C254.93,447.27,253.6,447.44,252.28,447.6Z"/><path class="ccdc5b36-4e02-41c9-b75a-e6ce2246dc3f" d="M260.12,446.5q2-.31,4-.66Q262.1,446.19,260.12,446.5Z"/><path class="ccdc5b36-4e02-41c9-b75a-e6ce2246dc3f" d="M236.51,449c1.33-.07,2.65-.15,4-.24C239.16,448.84,237.84,448.92,236.51,449Z"/><path class="ccdc5b36-4e02-41c9-b75a-e6ce2246dc3f" d="M228.61,449.26c1.33,0,2.65-.05,4-.09C231.26,449.21,229.94,449.24,228.61,449.26Z"/><path class="ccdc5b36-4e02-41c9-b75a-e6ce2246dc3f" d="M224.66,449.31c-1.31,0-2.63,0-3.95-.05C222,449.29,223.35,449.31,224.66,449.31Z"/><path class="ccdc5b36-4e02-41c9-b75a-e6ce2246dc3f" d="M291.06,439.31c1.3-.4,2.6-.81,3.89-1.23C293.66,438.5,292.36,438.91,291.06,439.31Z"/><path class="ccdc5b36-4e02-41c9-b75a-e6ce2246dc3f" d="M298.65,436.82c1.29-.45,2.58-.9,3.86-1.38C301.23,435.92,299.94,436.37,298.65,436.82Z"/><path class="ccdc5b36-4e02-41c9-b75a-e6ce2246dc3f" d="M267.92,445.12c1.33-.26,2.64-.52,4-.81C270.56,444.6,269.25,444.86,267.92,445.12Z"/><path class="ccdc5b36-4e02-41c9-b75a-e6ce2246dc3f" d="M275.69,443.46c1.31-.31,2.63-.62,3.94-.95C278.32,442.84,277,443.15,275.69,443.46Z"/><path class="ccdc5b36-4e02-41c9-b75a-e6ce2246dc3f" d="M283.4,441.52c1.31-.35,2.62-.71,3.92-1.09C286,440.81,284.71,441.17,283.4,441.52Z"/><path class="ccdc5b36-4e02-41c9-b75a-e6ce2246dc3f" d="M189.21,446.5l3.87.59Z"/><path class="ccdc5b36-4e02-41c9-b75a-e6ce2246dc3f" d="M158.27,439.31c1.24.38,2.49.76,3.73,1.12C160.75,440.07,159.51,439.69,158.27,439.31Z"/><path class="ccdc5b36-4e02-41c9-b75a-e6ce2246dc3f" d="M165.92,441.52q1.89.51,3.78,1Q167.81,442,165.92,441.52Z"/><path class="ccdc5b36-4e02-41c9-b75a-e6ce2246dc3f" d="M146.82,435.44c-.5-.18-1-.34-1.5-.53l0,0Z"/><path class="ccdc5b36-4e02-41c9-b75a-e6ce2246dc3f" d="M173.64,443.46c1.26.29,2.53.58,3.8.85C176.17,444,174.9,443.75,173.64,443.46Z"/><path class="ccdc5b36-4e02-41c9-b75a-e6ce2246dc3f" d="M150.68,436.82q1.84.65,3.69,1.26Q152.52,437.47,150.68,436.82Z"/><path class="ccdc5b36-4e02-41c9-b75a-e6ce2246dc3f" d="M212.82,449c1.3.07,2.61.13,3.92.18C215.43,449.12,214.12,449.06,212.82,449Z"/><path class="ccdc5b36-4e02-41c9-b75a-e6ce2246dc3f" d="M204.92,448.43c1.31.12,2.61.23,3.91.32C207.53,448.66,206.23,448.55,204.92,448.43Z"/><path class="ccdc5b36-4e02-41c9-b75a-e6ce2246dc3f" d="M197.05,447.6c1.3.16,2.6.32,3.9.46C199.65,447.92,198.35,447.76,197.05,447.6Z"/><path class="ccdc5b36-4e02-41c9-b75a-e6ce2246dc3f" d="M181.4,445.12q1.92.38,3.84.72Q183.32,445.5,181.4,445.12Z"/><path class="e44e05d4-2265-495a-a19e-f89dadf554a6" d="M383.53,383.53c-87.74,87.73-230,87.73-317.73,0A223.87,223.87,0,0,1,14.44,304a223.94,223.94,0,0,1,51.2-79.3,1.29,1.29,0,0,0,.16.17c87.74,87.74,230,87.74,317.73,0a224,224,0,0,0,51.38-79.51A224.73,224.73,0,0,1,383.53,383.53Z"/><path class="3e656897-8026-4101-9564-faad2c1a5d6b" d="M14.42,304s57.89-54.52,119.05-32.65c0,0-38.08-15.67-67.83-46.7C65.64,224.66,33.68,252.71,14.42,304Z"/><path class="b840a504-6461-4ecd-bba2-d5da055150c5" d="M87,243.56C48.93,245.9,14.42,304,14.42,304c17.39-47.77,51.22-79.35,51.22-79.35A224.3,224.3,0,0,0,87,243.56Z"/><path class="b0ddbcdc-c39a-4cb6-9372-31e7f1ad8753" d="M60.27,79.49S-8,153.32,12.3,220.87c0,0,13,35.4,43.49.9C87.47,185.9,155,147.64,233.94,149.43c0,0,31.68,6.58,34.67-9.56s27.2-123.75-4.48-128.54S144-3.61,60.27,79.49Z"/><path class="a26343a2-a225-4198-a740-ab0fbd220b18" d="M392.47,365.84S458,290.27,435.7,223.75c0,0-14.06-34.79-43.27.48-30.37,36.67-96.33,76.85-174.84,77.56,0,0-31.72-5.53-34.18,10.61s-23.13,123.9,8.53,127.65S311.89,451.11,392.47,365.84Z"/></g></g></svg>